<svg width="23" height="26" viewBox="0 0 23 26" fill="none" xmlns="http://www.w3.org/2000/svg">
<path d="M2.31142 5.91802e-06C1.03506 5.91802e-06 0 1.03506 0 2.31142V22.7088C0 23.9852 1.03506 25.0199 2.31142 25.0199C4.85743 25.0199 7.09299 23.3272 7.78303 20.8768L9.5247 14.6947C9.58397 14.4848 9.42593 14.2763 9.20756 14.2763H4.78263C4.54556 14.2763 4.38611 14.0332 4.48101 13.8156L8.5542 4.47749C8.60677 4.35754 8.72531 4.27993 8.85583 4.27993H13.9062C14.1433 4.27993 14.3028 4.52335 14.2079 4.74066L11.7649 10.341C11.6703 10.5584 11.8298 10.8014 12.0668 10.8014H16.6731C16.9638 10.8014 17.1119 11.1503 16.9102 11.3595L9.88983 18.637C9.48661 19.0551 9.78258 19.7525 10.3633 19.7525H12.8398C18.2941 19.7525 22.7155 15.3311 22.7155 9.87644C22.7155 4.4221 18.2941 5.91802e-06 12.8398 5.91802e-06H2.31142Z" fill="url(#paint0_linear_1_15)"/>
<path d="M4.78087 14.277L6.84569 15.1628C7.33571 15.3734 7.59394 15.9143 7.4493 16.4279L6.19587 20.8775C5.59508 23.0101 3.82413 24.5672 1.69687 24.9359C1.89231 24.9895 2.09692 25.0206 2.30965 25.0206C4.85566 25.0206 7.09123 23.3279 7.78091 20.8775L8.19789 19.3983L8.45755 18.4772L9.52294 14.6954C9.5822 14.4855 9.42416 14.277 9.20579 14.277H4.78087Z" fill="url(#paint1_linear_1_15)"/>
<defs>
<linearGradient id="paint0_linear_1_15" x1="1.14018" y1="18.4927" x2="18.1315" y2="0.358082" gradientUnits="userSpaceOnUse">
<stop stop-color="#6C63FF"/>
<stop offset="1" stop-color="#F8A4D8"/>
</linearGradient>
<linearGradient id="paint1_linear_1_15" x1="7.64544" y1="20.2284" x2="-7.65356" y2="15.8479" gradientUnits="userSpaceOnUse">
<stop stop-color="#6C63FF"/>
<stop offset="1" stop-color="#F8A4D8"/>
</linearGradient>
</defs>
</svg>
